<mxfile host="app.diagrams.net" modified="2023-12-05T17:19:41.074Z" agent="Mozilla/5.0 (X11; Linux x86_64; rv:120.0) Gecko/20100101 Firefox/120.0" etag="FGhuf5ail-pE6gQH94qz" version="22.1.5" type="device" pages="2">
  <diagram name="Fastest" id="e7e014a7-5840-1c2e-5031-d8a46d1fe8dd">
    <mxGraphModel dx="2037" dy="478" grid="1" gridSize="10" guides="1" tooltips="1" connect="1" arrows="1" fold="1" page="1" pageScale="1" pageWidth="1169" pageHeight="826" background="none" math="0" shadow="0">
      <root>
        <mxCell id="0" />
        <mxCell id="1" parent="0" />
        <mxCell id="2" value="&#xa;Worker thread " style="swimlane;whiteSpace=wrap;fontStyle=1;startSize=42;" parent="1" vertex="1">
          <mxGeometry x="164.5" y="128" width="280" height="570" as="geometry" />
        </mxCell>
        <mxCell id="o3OENYJQWLkYWnhnGJ2E-64" style="edgeStyle=orthogonalEdgeStyle;rounded=0;orthogonalLoop=1;jettySize=auto;html=1;endArrow=open;endFill=0;" parent="2" source="o3OENYJQWLkYWnhnGJ2E-50" target="o3OENYJQWLkYWnhnGJ2E-65" edge="1">
          <mxGeometry relative="1" as="geometry">
            <mxPoint x="140" y="422" as="targetPoint" />
          </mxGeometry>
        </mxCell>
        <mxCell id="o3OENYJQWLkYWnhnGJ2E-50" value="&lt;div&gt;Wait for message or EOF&lt;br&gt;&lt;/div&gt;" style="rounded=0;whiteSpace=wrap;html=1;" parent="2" vertex="1">
          <mxGeometry x="80" y="242" width="120" height="47.5" as="geometry" />
        </mxCell>
        <mxCell id="LOclpNJPpTrJgy0J3EmH-41" style="edgeStyle=orthogonalEdgeStyle;rounded=0;orthogonalLoop=1;jettySize=auto;html=1;endArrow=open;endFill=0;" edge="1" parent="2" source="o3OENYJQWLkYWnhnGJ2E-65" target="o3OENYJQWLkYWnhnGJ2E-69">
          <mxGeometry relative="1" as="geometry" />
        </mxCell>
        <mxCell id="o3OENYJQWLkYWnhnGJ2E-65" value="Event" style="rhombus;whiteSpace=wrap;html=1;" parent="2" vertex="1">
          <mxGeometry x="100" y="340" width="80" height="48" as="geometry" />
        </mxCell>
        <mxCell id="8Y54ojKYTVyUvJ_XyWZ6-13" style="edgeStyle=orthogonalEdgeStyle;rounded=0;orthogonalLoop=1;jettySize=auto;html=1;endArrow=open;endFill=0;" parent="2" source="o3OENYJQWLkYWnhnGJ2E-65" target="o3OENYJQWLkYWnhnGJ2E-79" edge="1">
          <mxGeometry relative="1" as="geometry">
            <Array as="points">
              <mxPoint x="226" y="364" />
              <mxPoint x="226" y="527" />
            </Array>
          </mxGeometry>
        </mxCell>
        <mxCell id="LOclpNJPpTrJgy0J3EmH-42" style="edgeStyle=orthogonalEdgeStyle;rounded=0;orthogonalLoop=1;jettySize=auto;html=1;endArrow=open;endFill=0;" edge="1" parent="2" source="o3OENYJQWLkYWnhnGJ2E-69" target="o3OENYJQWLkYWnhnGJ2E-79">
          <mxGeometry relative="1" as="geometry" />
        </mxCell>
        <mxCell id="o3OENYJQWLkYWnhnGJ2E-69" value="Send results" style="html=1;whiteSpace=wrap;" parent="2" vertex="1">
          <mxGeometry x="97.5" y="432" width="85" height="38" as="geometry" />
        </mxCell>
        <mxCell id="o3OENYJQWLkYWnhnGJ2E-74" value="EOF" style="text;html=1;align=center;verticalAlign=middle;resizable=0;points=[];autosize=1;strokeColor=none;fillColor=none;" parent="2" vertex="1">
          <mxGeometry x="135.5" y="382" width="40" height="30" as="geometry" />
        </mxCell>
        <mxCell id="o3OENYJQWLkYWnhnGJ2E-77" style="edgeStyle=orthogonalEdgeStyle;rounded=0;orthogonalLoop=1;jettySize=auto;html=1;endArrow=open;endFill=0;" parent="2" source="o3OENYJQWLkYWnhnGJ2E-76" target="o3OENYJQWLkYWnhnGJ2E-50" edge="1">
          <mxGeometry relative="1" as="geometry">
            <Array as="points">
              <mxPoint x="61" y="266" />
            </Array>
          </mxGeometry>
        </mxCell>
        <mxCell id="o3OENYJQWLkYWnhnGJ2E-76" value="&lt;div&gt;Update&lt;/div&gt;&lt;div&gt;fastest flights&lt;/div&gt;" style="html=1;whiteSpace=wrap;" parent="2" vertex="1">
          <mxGeometry x="15" y="302" width="95" height="38" as="geometry" />
        </mxCell>
        <mxCell id="o3OENYJQWLkYWnhnGJ2E-71" style="edgeStyle=orthogonalEdgeStyle;rounded=0;orthogonalLoop=1;jettySize=auto;html=1;endArrow=open;endFill=0;" parent="2" source="o3OENYJQWLkYWnhnGJ2E-65" target="o3OENYJQWLkYWnhnGJ2E-76" edge="1">
          <mxGeometry relative="1" as="geometry">
            <Array as="points">
              <mxPoint x="61" y="364" />
            </Array>
          </mxGeometry>
        </mxCell>
        <mxCell id="o3OENYJQWLkYWnhnGJ2E-79" value="" style="ellipse;html=1;shape=endState;fillColor=#000000;strokeColor=#000000;" parent="2" vertex="1">
          <mxGeometry x="125" y="512" width="30" height="30" as="geometry" />
        </mxCell>
        <mxCell id="o3OENYJQWLkYWnhnGJ2E-70" value="data" style="text;html=1;align=center;verticalAlign=middle;resizable=0;points=[];autosize=1;strokeColor=none;fillColor=none;" parent="2" vertex="1">
          <mxGeometry x="70" y="358" width="40" height="30" as="geometry" />
        </mxCell>
        <mxCell id="LOclpNJPpTrJgy0J3EmH-43" value="cancel" style="text;html=1;align=center;verticalAlign=middle;resizable=0;points=[];autosize=1;strokeColor=none;fillColor=none;" vertex="1" parent="2">
          <mxGeometry x="165.5" y="358" width="60" height="30" as="geometry" />
        </mxCell>
        <mxCell id="LOclpNJPpTrJgy0J3EmH-45" value="&amp;lt;&amp;lt;scale=1/client&amp;gt;&amp;gt;" style="text;html=1;align=center;verticalAlign=middle;resizable=0;points=[];autosize=1;strokeColor=none;fillColor=none;" vertex="1" parent="2">
          <mxGeometry x="75" width="130" height="30" as="geometry" />
        </mxCell>
        <mxCell id="3" value="Middleware thread" style="swimlane;whiteSpace=wrap" parent="1" vertex="1">
          <mxGeometry x="444.5" y="128" width="280" height="570" as="geometry" />
        </mxCell>
        <mxCell id="o3OENYJQWLkYWnhnGJ2E-48" value="Wait for message or context cancellation" style="rounded=0;whiteSpace=wrap;html=1;" parent="3" vertex="1">
          <mxGeometry x="155.5" y="172" width="104.5" height="48" as="geometry" />
        </mxCell>
        <mxCell id="o3OENYJQWLkYWnhnGJ2E-54" value="EOF" style="text;html=1;align=center;verticalAlign=middle;resizable=0;points=[];autosize=1;strokeColor=none;fillColor=none;" parent="3" vertex="1">
          <mxGeometry x="167.75" y="292" width="40" height="30" as="geometry" />
        </mxCell>
        <mxCell id="LOclpNJPpTrJgy0J3EmH-37" style="edgeStyle=orthogonalEdgeStyle;rounded=0;orthogonalLoop=1;jettySize=auto;html=1;endArrow=open;endFill=0;" edge="1" parent="3" source="o3OENYJQWLkYWnhnGJ2E-55">
          <mxGeometry relative="1" as="geometry">
            <mxPoint x="45.5" y="292" as="targetPoint" />
            <Array as="points">
              <mxPoint x="76" y="346" />
              <mxPoint x="76" y="292" />
            </Array>
          </mxGeometry>
        </mxCell>
        <mxCell id="o3OENYJQWLkYWnhnGJ2E-55" value="close message channel" style="rounded=0;whiteSpace=wrap;html=1;" parent="3" vertex="1">
          <mxGeometry x="107.75" y="322" width="65.5" height="48" as="geometry" />
        </mxCell>
        <mxCell id="o3OENYJQWLkYWnhnGJ2E-80" style="edgeStyle=orthogonalEdgeStyle;rounded=0;orthogonalLoop=1;jettySize=auto;html=1;endArrow=open;endFill=0;" parent="3" source="o3OENYJQWLkYWnhnGJ2E-52" target="o3OENYJQWLkYWnhnGJ2E-94" edge="1">
          <mxGeometry relative="1" as="geometry">
            <mxPoint x="265.5" y="392" as="targetPoint" />
            <Array as="points">
              <mxPoint x="266" y="277" />
              <mxPoint x="266" y="422" />
              <mxPoint x="141" y="422" />
            </Array>
          </mxGeometry>
        </mxCell>
        <mxCell id="o3OENYJQWLkYWnhnGJ2E-52" value="Event" style="rhombus;whiteSpace=wrap;html=1;" parent="3" vertex="1">
          <mxGeometry x="167.75" y="252" width="80" height="50" as="geometry" />
        </mxCell>
        <mxCell id="o3OENYJQWLkYWnhnGJ2E-51" style="edgeStyle=orthogonalEdgeStyle;rounded=0;orthogonalLoop=1;jettySize=auto;html=1;endArrow=open;endFill=0;" parent="3" source="o3OENYJQWLkYWnhnGJ2E-48" target="o3OENYJQWLkYWnhnGJ2E-52" edge="1">
          <mxGeometry relative="1" as="geometry">
            <mxPoint x="140" y="292" as="targetPoint" />
          </mxGeometry>
        </mxCell>
        <mxCell id="o3OENYJQWLkYWnhnGJ2E-53" style="edgeStyle=orthogonalEdgeStyle;rounded=0;orthogonalLoop=1;jettySize=auto;html=1;endArrow=open;endFill=0;" parent="3" source="o3OENYJQWLkYWnhnGJ2E-52" target="o3OENYJQWLkYWnhnGJ2E-55" edge="1">
          <mxGeometry relative="1" as="geometry">
            <mxPoint x="140" y="382" as="targetPoint" />
            <Array as="points">
              <mxPoint x="208" y="346" />
            </Array>
          </mxGeometry>
        </mxCell>
        <mxCell id="o3OENYJQWLkYWnhnGJ2E-58" value="data" style="text;html=1;align=center;verticalAlign=middle;resizable=0;points=[];autosize=1;strokeColor=none;fillColor=none;" parent="3" vertex="1">
          <mxGeometry x="140.5" y="252" width="40" height="30" as="geometry" />
        </mxCell>
        <mxCell id="o3OENYJQWLkYWnhnGJ2E-61" style="edgeStyle=orthogonalEdgeStyle;rounded=0;orthogonalLoop=1;jettySize=auto;html=1;endArrow=open;endFill=0;" parent="3" target="o3OENYJQWLkYWnhnGJ2E-48" edge="1">
          <mxGeometry relative="1" as="geometry">
            <mxPoint x="35.5" y="252" as="sourcePoint" />
            <Array as="points">
              <mxPoint x="16" y="252" />
              <mxPoint x="16" y="196" />
            </Array>
          </mxGeometry>
        </mxCell>
        <mxCell id="o3OENYJQWLkYWnhnGJ2E-59" value="" style="shape=line;strokeWidth=6;strokeColor=#000000;rotation=90;" parent="3" vertex="1">
          <mxGeometry y="270" width="78" height="15" as="geometry" />
        </mxCell>
        <mxCell id="o3OENYJQWLkYWnhnGJ2E-57" style="edgeStyle=orthogonalEdgeStyle;rounded=0;orthogonalLoop=1;jettySize=auto;html=1;endArrow=open;endFill=0;" parent="3" source="o3OENYJQWLkYWnhnGJ2E-52" target="o3OENYJQWLkYWnhnGJ2E-59" edge="1">
          <mxGeometry relative="1" as="geometry">
            <mxPoint x="115.5" y="277" as="targetPoint" />
          </mxGeometry>
        </mxCell>
        <mxCell id="o3OENYJQWLkYWnhnGJ2E-83" value="cancel" style="text;html=1;align=center;verticalAlign=middle;resizable=0;points=[];autosize=1;strokeColor=none;fillColor=none;" parent="3" vertex="1">
          <mxGeometry x="235.5" y="252" width="50" height="30" as="geometry" />
        </mxCell>
        <mxCell id="o3OENYJQWLkYWnhnGJ2E-96" style="edgeStyle=orthogonalEdgeStyle;rounded=0;orthogonalLoop=1;jettySize=auto;html=1;endArrow=open;endFill=0;" parent="3" source="o3OENYJQWLkYWnhnGJ2E-94" target="o3OENYJQWLkYWnhnGJ2E-97" edge="1">
          <mxGeometry relative="1" as="geometry">
            <mxPoint x="140.5" y="512" as="targetPoint" />
          </mxGeometry>
        </mxCell>
        <mxCell id="o3OENYJQWLkYWnhnGJ2E-94" value="" style="shape=line;html=1;strokeWidth=6;strokeColor=#000000;" parent="3" vertex="1">
          <mxGeometry x="40.5" y="452" width="200" height="10" as="geometry" />
        </mxCell>
        <mxCell id="o3OENYJQWLkYWnhnGJ2E-97" value="" style="ellipse;html=1;shape=endState;fillColor=#000000;strokeColor=#000000;" parent="3" vertex="1">
          <mxGeometry x="125.5" y="512" width="30" height="30" as="geometry" />
        </mxCell>
        <mxCell id="4" value="Signal Handler thread" style="swimlane;whiteSpace=wrap" parent="1" vertex="1">
          <mxGeometry x="724.5" y="128" width="280" height="570" as="geometry" />
        </mxCell>
        <mxCell id="o3OENYJQWLkYWnhnGJ2E-46" style="edgeStyle=orthogonalEdgeStyle;rounded=0;orthogonalLoop=1;jettySize=auto;html=1;endArrow=open;endFill=0;" parent="4" source="o3OENYJQWLkYWnhnGJ2E-44" target="o3OENYJQWLkYWnhnGJ2E-45" edge="1">
          <mxGeometry relative="1" as="geometry" />
        </mxCell>
        <mxCell id="o3OENYJQWLkYWnhnGJ2E-44" value="&lt;div&gt;Wait for&lt;/div&gt;&lt;div&gt;termination signal&lt;/div&gt;" style="rounded=0;whiteSpace=wrap;html=1;" parent="4" vertex="1">
          <mxGeometry x="85" y="90" width="110" height="52.5" as="geometry" />
        </mxCell>
        <mxCell id="o3OENYJQWLkYWnhnGJ2E-45" value="cancel context" style="rounded=0;whiteSpace=wrap;html=1;" parent="4" vertex="1">
          <mxGeometry x="90" y="240" width="100" height="45" as="geometry" />
        </mxCell>
        <mxCell id="o3OENYJQWLkYWnhnGJ2E-67" value="" style="ellipse;html=1;shape=endState;fillColor=#000000;strokeColor=#000000;" parent="4" vertex="1">
          <mxGeometry x="175.5" y="512" width="30" height="30" as="geometry" />
        </mxCell>
        <mxCell id="o3OENYJQWLkYWnhnGJ2E-66" style="edgeStyle=orthogonalEdgeStyle;rounded=0;orthogonalLoop=1;jettySize=auto;html=1;endArrow=open;endFill=0;" parent="4" source="o3OENYJQWLkYWnhnGJ2E-45" target="o3OENYJQWLkYWnhnGJ2E-90" edge="1">
          <mxGeometry relative="1" as="geometry">
            <mxPoint x="140.5" y="402" as="targetPoint" />
          </mxGeometry>
        </mxCell>
        <mxCell id="o3OENYJQWLkYWnhnGJ2E-90" value="" style="shape=line;html=1;strokeWidth=6;strokeColor=#000000;" parent="4" vertex="1">
          <mxGeometry x="40" y="402" width="200" height="10" as="geometry" />
        </mxCell>
        <mxCell id="o3OENYJQWLkYWnhnGJ2E-91" value="" style="edgeStyle=orthogonalEdgeStyle;html=1;verticalAlign=bottom;endArrow=open;endSize=8;strokeColor=#000000;rounded=0;" parent="4" source="o3OENYJQWLkYWnhnGJ2E-90" target="o3OENYJQWLkYWnhnGJ2E-67" edge="1">
          <mxGeometry relative="1" as="geometry">
            <mxPoint x="135.5" y="482" as="targetPoint" />
            <Array as="points">
              <mxPoint x="191" y="467" />
            </Array>
          </mxGeometry>
        </mxCell>
        <mxCell id="o3OENYJQWLkYWnhnGJ2E-47" style="edgeStyle=orthogonalEdgeStyle;rounded=0;orthogonalLoop=1;jettySize=auto;html=1;endArrow=open;endFill=0;" parent="1" target="o3OENYJQWLkYWnhnGJ2E-48" edge="1" source="LOclpNJPpTrJgy0J3EmH-14">
          <mxGeometry relative="1" as="geometry">
            <mxPoint x="580" y="263" as="targetPoint" />
            <mxPoint x="400" y="280" as="sourcePoint" />
            <Array as="points">
              <mxPoint x="652" y="261" />
            </Array>
          </mxGeometry>
        </mxCell>
        <mxCell id="o3OENYJQWLkYWnhnGJ2E-60" style="edgeStyle=orthogonalEdgeStyle;rounded=0;orthogonalLoop=1;jettySize=auto;html=1;endArrow=open;endFill=0;" parent="1" source="o3OENYJQWLkYWnhnGJ2E-59" target="o3OENYJQWLkYWnhnGJ2E-50" edge="1">
          <mxGeometry relative="1" as="geometry">
            <Array as="points">
              <mxPoint x="484" y="390" />
            </Array>
          </mxGeometry>
        </mxCell>
        <mxCell id="o3OENYJQWLkYWnhnGJ2E-92" style="edgeStyle=orthogonalEdgeStyle;rounded=0;orthogonalLoop=1;jettySize=auto;html=1;endArrow=open;endFill=0;" parent="1" source="o3OENYJQWLkYWnhnGJ2E-90" target="o3OENYJQWLkYWnhnGJ2E-48" edge="1">
          <mxGeometry relative="1" as="geometry">
            <Array as="points">
              <mxPoint x="810" y="560" />
              <mxPoint x="740" y="560" />
              <mxPoint x="740" y="324" />
            </Array>
          </mxGeometry>
        </mxCell>
        <mxCell id="o3OENYJQWLkYWnhnGJ2E-62" style="edgeStyle=orthogonalEdgeStyle;rounded=0;orthogonalLoop=1;jettySize=auto;html=1;endArrow=open;endFill=0;" parent="1" source="o3OENYJQWLkYWnhnGJ2E-94" target="o3OENYJQWLkYWnhnGJ2E-50" edge="1">
          <mxGeometry relative="1" as="geometry">
            <mxPoint x="540" y="580" as="sourcePoint" />
            <mxPoint x="370" y="340" as="targetPoint" />
            <Array as="points">
              <mxPoint x="540" y="610" />
              <mxPoint x="411" y="610" />
              <mxPoint x="411" y="400" />
            </Array>
          </mxGeometry>
        </mxCell>
        <mxCell id="LOclpNJPpTrJgy0J3EmH-9" value="Main thread" style="swimlane;whiteSpace=wrap" vertex="1" parent="1">
          <mxGeometry x="-115.5" y="128" width="280" height="570" as="geometry" />
        </mxCell>
        <mxCell id="LOclpNJPpTrJgy0J3EmH-10" value="" style="ellipse;shape=startState;fillColor=#000000;strokeColor=#000000;" vertex="1" parent="LOclpNJPpTrJgy0J3EmH-9">
          <mxGeometry x="125" y="42" width="30" height="30" as="geometry" />
        </mxCell>
        <mxCell id="LOclpNJPpTrJgy0J3EmH-11" value="" style="edgeStyle=elbowEdgeStyle;elbow=horizontal;verticalAlign=bottom;endArrow=open;endSize=8;strokeColor=#000000;endFill=1;rounded=0" edge="1" parent="LOclpNJPpTrJgy0J3EmH-9" source="LOclpNJPpTrJgy0J3EmH-10" target="LOclpNJPpTrJgy0J3EmH-12">
          <mxGeometry x="100" y="40" as="geometry">
            <mxPoint x="115" y="110" as="targetPoint" />
          </mxGeometry>
        </mxCell>
        <mxCell id="LOclpNJPpTrJgy0J3EmH-12" value="Establish connection&#xa;to RabbitMQ" style="strokeColor=#000000;" vertex="1" parent="LOclpNJPpTrJgy0J3EmH-9">
          <mxGeometry x="85" y="107.75" width="110" height="50" as="geometry" />
        </mxCell>
        <mxCell id="LOclpNJPpTrJgy0J3EmH-13" value="" style="endArrow=open;strokeColor=#000000;endFill=1;rounded=0" edge="1" parent="LOclpNJPpTrJgy0J3EmH-9" source="LOclpNJPpTrJgy0J3EmH-12" target="LOclpNJPpTrJgy0J3EmH-14">
          <mxGeometry relative="1" as="geometry">
            <mxPoint x="140" y="220" as="targetPoint" />
          </mxGeometry>
        </mxCell>
        <mxCell id="LOclpNJPpTrJgy0J3EmH-32" style="edgeStyle=orthogonalEdgeStyle;rounded=0;orthogonalLoop=1;jettySize=auto;html=1;endArrow=open;endFill=0;" edge="1" parent="LOclpNJPpTrJgy0J3EmH-9" target="LOclpNJPpTrJgy0J3EmH-16">
          <mxGeometry relative="1" as="geometry">
            <mxPoint x="235.5" y="152" as="sourcePoint" />
            <Array as="points">
              <mxPoint x="266" y="152" />
              <mxPoint x="266" y="202" />
            </Array>
          </mxGeometry>
        </mxCell>
        <mxCell id="LOclpNJPpTrJgy0J3EmH-14" value="" style="shape=line;strokeWidth=6;strokeColor=#000000;rotation=-90;" vertex="1" parent="LOclpNJPpTrJgy0J3EmH-9">
          <mxGeometry x="187.75" y="125.25" width="78" height="15" as="geometry" />
        </mxCell>
        <mxCell id="LOclpNJPpTrJgy0J3EmH-15" style="edgeStyle=orthogonalEdgeStyle;rounded=0;orthogonalLoop=1;jettySize=auto;html=1;endArrow=open;endFill=0;" edge="1" parent="LOclpNJPpTrJgy0J3EmH-9" source="LOclpNJPpTrJgy0J3EmH-16" target="LOclpNJPpTrJgy0J3EmH-17">
          <mxGeometry relative="1" as="geometry">
            <mxPoint x="140" y="372" as="targetPoint" />
          </mxGeometry>
        </mxCell>
        <mxCell id="LOclpNJPpTrJgy0J3EmH-16" value="&lt;div&gt;Wait for clients&lt;/div&gt;" style="rounded=0;whiteSpace=wrap;html=1;" vertex="1" parent="LOclpNJPpTrJgy0J3EmH-9">
          <mxGeometry x="80" y="192" width="120" height="47.5" as="geometry" />
        </mxCell>
        <mxCell id="LOclpNJPpTrJgy0J3EmH-17" value="Event" style="rhombus;whiteSpace=wrap;html=1;" vertex="1" parent="LOclpNJPpTrJgy0J3EmH-9">
          <mxGeometry x="100" y="372" width="80" height="48" as="geometry" />
        </mxCell>
        <mxCell id="LOclpNJPpTrJgy0J3EmH-18" style="edgeStyle=orthogonalEdgeStyle;rounded=0;orthogonalLoop=1;jettySize=auto;html=1;endArrow=open;endFill=0;" edge="1" parent="LOclpNJPpTrJgy0J3EmH-9" source="LOclpNJPpTrJgy0J3EmH-17" target="LOclpNJPpTrJgy0J3EmH-25">
          <mxGeometry relative="1" as="geometry">
            <Array as="points">
              <mxPoint x="140" y="432" />
              <mxPoint x="140" y="432" />
            </Array>
            <mxPoint x="178" y="445" as="sourcePoint" />
          </mxGeometry>
        </mxCell>
        <mxCell id="LOclpNJPpTrJgy0J3EmH-21" value="cancel" style="text;html=1;align=center;verticalAlign=middle;resizable=0;points=[];autosize=1;strokeColor=none;fillColor=none;" vertex="1" parent="LOclpNJPpTrJgy0J3EmH-9">
          <mxGeometry x="85" y="412" width="60" height="30" as="geometry" />
        </mxCell>
        <mxCell id="LOclpNJPpTrJgy0J3EmH-22" style="edgeStyle=orthogonalEdgeStyle;rounded=0;orthogonalLoop=1;jettySize=auto;html=1;endArrow=open;endFill=0;" edge="1" parent="LOclpNJPpTrJgy0J3EmH-9" source="LOclpNJPpTrJgy0J3EmH-33" target="LOclpNJPpTrJgy0J3EmH-16">
          <mxGeometry relative="1" as="geometry">
            <Array as="points">
              <mxPoint x="219" y="222" />
            </Array>
            <mxPoint x="218.30000000000018" y="285" as="sourcePoint" />
          </mxGeometry>
        </mxCell>
        <mxCell id="LOclpNJPpTrJgy0J3EmH-24" style="edgeStyle=orthogonalEdgeStyle;rounded=0;orthogonalLoop=1;jettySize=auto;html=1;endArrow=open;endFill=0;" edge="1" parent="LOclpNJPpTrJgy0J3EmH-9" source="LOclpNJPpTrJgy0J3EmH-17" target="LOclpNJPpTrJgy0J3EmH-33">
          <mxGeometry relative="1" as="geometry">
            <Array as="points">
              <mxPoint x="218" y="396" />
            </Array>
            <mxPoint x="218" y="323" as="targetPoint" />
          </mxGeometry>
        </mxCell>
        <mxCell id="LOclpNJPpTrJgy0J3EmH-25" value="" style="ellipse;html=1;shape=endState;fillColor=#000000;strokeColor=#000000;" vertex="1" parent="LOclpNJPpTrJgy0J3EmH-9">
          <mxGeometry x="125" y="512" width="30" height="30" as="geometry" />
        </mxCell>
        <mxCell id="LOclpNJPpTrJgy0J3EmH-26" value="&lt;div&gt;new&lt;/div&gt;&lt;div&gt;client&lt;br&gt;&lt;/div&gt;" style="text;html=1;align=center;verticalAlign=middle;resizable=0;points=[];autosize=1;strokeColor=none;fillColor=none;" vertex="1" parent="LOclpNJPpTrJgy0J3EmH-9">
          <mxGeometry x="165.5" y="392" width="50" height="40" as="geometry" />
        </mxCell>
        <mxCell id="LOclpNJPpTrJgy0J3EmH-33" value="" style="shape=line;html=1;strokeWidth=6;strokeColor=#000000;" vertex="1" parent="LOclpNJPpTrJgy0J3EmH-9">
          <mxGeometry x="171.25" y="312" width="94.5" height="10" as="geometry" />
        </mxCell>
        <mxCell id="o3OENYJQWLkYWnhnGJ2E-43" style="edgeStyle=orthogonalEdgeStyle;rounded=0;orthogonalLoop=1;jettySize=auto;html=1;endArrow=open;endFill=0;" parent="1" target="o3OENYJQWLkYWnhnGJ2E-44" edge="1">
          <mxGeometry relative="1" as="geometry">
            <mxPoint x="830" y="240" as="targetPoint" />
            <mxPoint x="120" y="240" as="sourcePoint" />
            <Array as="points">
              <mxPoint x="460" y="240" />
              <mxPoint x="460" y="240" />
            </Array>
          </mxGeometry>
        </mxCell>
        <mxCell id="LOclpNJPpTrJgy0J3EmH-40" value="" style="edgeStyle=orthogonalEdgeStyle;rounded=0;orthogonalLoop=1;jettySize=auto;html=1;endArrow=open;endFill=0;" edge="1" parent="1" source="LOclpNJPpTrJgy0J3EmH-33" target="o3OENYJQWLkYWnhnGJ2E-50">
          <mxGeometry relative="1" as="geometry">
            <mxPoint x="130" y="440" as="sourcePoint" />
            <mxPoint x="244.5" y="350" as="targetPoint" />
            <Array as="points">
              <mxPoint x="130" y="350" />
              <mxPoint x="305" y="350" />
            </Array>
          </mxGeometry>
        </mxCell>
      </root>
    </mxGraphModel>
  </diagram>
  <diagram name="Average" id="EAzGPFzMdWq-KW-Qi0nT">
    <mxGraphModel dx="2037" dy="478" grid="1" gridSize="10" guides="1" tooltips="1" connect="1" arrows="1" fold="1" page="1" pageScale="1" pageWidth="1169" pageHeight="826" background="none" math="0" shadow="0">
      <root>
        <mxCell id="mYbg-_KZEM172oGs_N1d-0" />
        <mxCell id="mYbg-_KZEM172oGs_N1d-1" parent="mYbg-_KZEM172oGs_N1d-0" />
        <mxCell id="mYbg-_KZEM172oGs_N1d-2" value="&#xa;Worker thread " style="swimlane;whiteSpace=wrap;fontStyle=1;startSize=42;" vertex="1" parent="mYbg-_KZEM172oGs_N1d-1">
          <mxGeometry x="164.5" y="128" width="280" height="570" as="geometry" />
        </mxCell>
        <mxCell id="mYbg-_KZEM172oGs_N1d-3" style="edgeStyle=orthogonalEdgeStyle;rounded=0;orthogonalLoop=1;jettySize=auto;html=1;endArrow=open;endFill=0;" edge="1" parent="mYbg-_KZEM172oGs_N1d-2" source="mYbg-_KZEM172oGs_N1d-4" target="mYbg-_KZEM172oGs_N1d-6">
          <mxGeometry relative="1" as="geometry">
            <mxPoint x="140" y="422" as="targetPoint" />
          </mxGeometry>
        </mxCell>
        <mxCell id="mYbg-_KZEM172oGs_N1d-4" value="&lt;div&gt;Wait for message or EOF&lt;br&gt;&lt;/div&gt;" style="rounded=0;whiteSpace=wrap;html=1;" vertex="1" parent="mYbg-_KZEM172oGs_N1d-2">
          <mxGeometry x="80" y="182" width="120" height="47.5" as="geometry" />
        </mxCell>
        <mxCell id="mYbg-_KZEM172oGs_N1d-5" style="edgeStyle=orthogonalEdgeStyle;rounded=0;orthogonalLoop=1;jettySize=auto;html=1;endArrow=open;endFill=0;" edge="1" parent="mYbg-_KZEM172oGs_N1d-2" source="pzRMy70EXAZjNkdAB77s-3" target="pzRMy70EXAZjNkdAB77s-13">
          <mxGeometry relative="1" as="geometry">
            <mxPoint x="140" y="432" as="targetPoint" />
          </mxGeometry>
        </mxCell>
        <mxCell id="mYbg-_KZEM172oGs_N1d-6" value="Event" style="rhombus;whiteSpace=wrap;html=1;" vertex="1" parent="mYbg-_KZEM172oGs_N1d-2">
          <mxGeometry x="100" y="282" width="80" height="48" as="geometry" />
        </mxCell>
        <mxCell id="mYbg-_KZEM172oGs_N1d-7" style="edgeStyle=orthogonalEdgeStyle;rounded=0;orthogonalLoop=1;jettySize=auto;html=1;endArrow=open;endFill=0;" edge="1" parent="mYbg-_KZEM172oGs_N1d-2" source="mYbg-_KZEM172oGs_N1d-6" target="mYbg-_KZEM172oGs_N1d-14">
          <mxGeometry relative="1" as="geometry">
            <Array as="points">
              <mxPoint x="226" y="306" />
              <mxPoint x="226" y="527" />
            </Array>
          </mxGeometry>
        </mxCell>
        <mxCell id="mYbg-_KZEM172oGs_N1d-8" style="edgeStyle=orthogonalEdgeStyle;rounded=0;orthogonalLoop=1;jettySize=auto;html=1;endArrow=open;endFill=0;" edge="1" parent="mYbg-_KZEM172oGs_N1d-2" source="pzRMy70EXAZjNkdAB77s-13" target="mYbg-_KZEM172oGs_N1d-14">
          <mxGeometry relative="1" as="geometry">
            <mxPoint x="140" y="470" as="sourcePoint" />
          </mxGeometry>
        </mxCell>
        <mxCell id="mYbg-_KZEM172oGs_N1d-10" value="EOF" style="text;html=1;align=center;verticalAlign=middle;resizable=0;points=[];autosize=1;strokeColor=none;fillColor=none;" vertex="1" parent="mYbg-_KZEM172oGs_N1d-2">
          <mxGeometry x="136.25" y="322" width="40" height="30" as="geometry" />
        </mxCell>
        <mxCell id="mYbg-_KZEM172oGs_N1d-11" style="edgeStyle=orthogonalEdgeStyle;rounded=0;orthogonalLoop=1;jettySize=auto;html=1;endArrow=open;endFill=0;" edge="1" parent="mYbg-_KZEM172oGs_N1d-2" source="mYbg-_KZEM172oGs_N1d-12" target="mYbg-_KZEM172oGs_N1d-4">
          <mxGeometry relative="1" as="geometry">
            <Array as="points">
              <mxPoint x="61" y="216" />
            </Array>
          </mxGeometry>
        </mxCell>
        <mxCell id="mYbg-_KZEM172oGs_N1d-12" value="Store price or average" style="html=1;whiteSpace=wrap;" vertex="1" parent="mYbg-_KZEM172oGs_N1d-2">
          <mxGeometry x="27.5" y="247" width="70" height="38" as="geometry" />
        </mxCell>
        <mxCell id="mYbg-_KZEM172oGs_N1d-13" style="edgeStyle=orthogonalEdgeStyle;rounded=0;orthogonalLoop=1;jettySize=auto;html=1;endArrow=open;endFill=0;" edge="1" parent="mYbg-_KZEM172oGs_N1d-2" source="mYbg-_KZEM172oGs_N1d-6" target="mYbg-_KZEM172oGs_N1d-12">
          <mxGeometry relative="1" as="geometry">
            <Array as="points">
              <mxPoint x="61" y="306" />
            </Array>
          </mxGeometry>
        </mxCell>
        <mxCell id="mYbg-_KZEM172oGs_N1d-14" value="" style="ellipse;html=1;shape=endState;fillColor=#000000;strokeColor=#000000;" vertex="1" parent="mYbg-_KZEM172oGs_N1d-2">
          <mxGeometry x="125" y="512" width="30" height="30" as="geometry" />
        </mxCell>
        <mxCell id="mYbg-_KZEM172oGs_N1d-15" value="data" style="text;html=1;align=center;verticalAlign=middle;resizable=0;points=[];autosize=1;strokeColor=none;fillColor=none;" vertex="1" parent="mYbg-_KZEM172oGs_N1d-2">
          <mxGeometry x="63.75" y="300" width="40" height="30" as="geometry" />
        </mxCell>
        <mxCell id="mYbg-_KZEM172oGs_N1d-16" value="cancel" style="text;html=1;align=center;verticalAlign=middle;resizable=0;points=[];autosize=1;strokeColor=none;fillColor=none;" vertex="1" parent="mYbg-_KZEM172oGs_N1d-2">
          <mxGeometry x="165.5" y="300" width="60" height="30" as="geometry" />
        </mxCell>
        <mxCell id="mYbg-_KZEM172oGs_N1d-17" value="&amp;lt;&amp;lt;scale=1/client&amp;gt;&amp;gt;" style="text;html=1;align=center;verticalAlign=middle;resizable=0;points=[];autosize=1;strokeColor=none;fillColor=none;" vertex="1" parent="mYbg-_KZEM172oGs_N1d-2">
          <mxGeometry x="75" width="130" height="30" as="geometry" />
        </mxCell>
        <mxCell id="pzRMy70EXAZjNkdAB77s-13" value="Send results" style="rounded=0;whiteSpace=wrap;html=1;" vertex="1" parent="mYbg-_KZEM172oGs_N1d-2">
          <mxGeometry x="103.75" y="452" width="72.5" height="38" as="geometry" />
        </mxCell>
        <mxCell id="pzRMy70EXAZjNkdAB77s-19" value="" style="edgeStyle=orthogonalEdgeStyle;rounded=0;orthogonalLoop=1;jettySize=auto;html=1;endArrow=open;endFill=0;" edge="1" parent="mYbg-_KZEM172oGs_N1d-2" source="mYbg-_KZEM172oGs_N1d-6" target="pzRMy70EXAZjNkdAB77s-3">
          <mxGeometry relative="1" as="geometry">
            <mxPoint x="304.5" y="418" as="sourcePoint" />
            <mxPoint x="304.5" y="560" as="targetPoint" />
          </mxGeometry>
        </mxCell>
        <mxCell id="pzRMy70EXAZjNkdAB77s-3" value="Filter and aggregate data" style="html=1;whiteSpace=wrap;" vertex="1" parent="mYbg-_KZEM172oGs_N1d-2">
          <mxGeometry x="97.5" y="372" width="85" height="48" as="geometry" />
        </mxCell>
        <mxCell id="mYbg-_KZEM172oGs_N1d-18" value="Middleware thread" style="swimlane;whiteSpace=wrap" vertex="1" parent="mYbg-_KZEM172oGs_N1d-1">
          <mxGeometry x="444.5" y="128" width="280" height="570" as="geometry" />
        </mxCell>
        <mxCell id="mYbg-_KZEM172oGs_N1d-19" value="Wait for message or context cancellation" style="rounded=0;whiteSpace=wrap;html=1;" vertex="1" parent="mYbg-_KZEM172oGs_N1d-18">
          <mxGeometry x="155.5" y="172" width="104.5" height="48" as="geometry" />
        </mxCell>
        <mxCell id="mYbg-_KZEM172oGs_N1d-20" value="EOF" style="text;html=1;align=center;verticalAlign=middle;resizable=0;points=[];autosize=1;strokeColor=none;fillColor=none;" vertex="1" parent="mYbg-_KZEM172oGs_N1d-18">
          <mxGeometry x="167.75" y="292" width="40" height="30" as="geometry" />
        </mxCell>
        <mxCell id="mYbg-_KZEM172oGs_N1d-21" style="edgeStyle=orthogonalEdgeStyle;rounded=0;orthogonalLoop=1;jettySize=auto;html=1;endArrow=open;endFill=0;" edge="1" parent="mYbg-_KZEM172oGs_N1d-18" source="mYbg-_KZEM172oGs_N1d-22">
          <mxGeometry relative="1" as="geometry">
            <mxPoint x="45.5" y="292" as="targetPoint" />
            <Array as="points">
              <mxPoint x="76" y="346" />
              <mxPoint x="76" y="292" />
            </Array>
          </mxGeometry>
        </mxCell>
        <mxCell id="mYbg-_KZEM172oGs_N1d-22" value="close message channel" style="rounded=0;whiteSpace=wrap;html=1;" vertex="1" parent="mYbg-_KZEM172oGs_N1d-18">
          <mxGeometry x="107.75" y="322" width="65.5" height="48" as="geometry" />
        </mxCell>
        <mxCell id="mYbg-_KZEM172oGs_N1d-23" style="edgeStyle=orthogonalEdgeStyle;rounded=0;orthogonalLoop=1;jettySize=auto;html=1;endArrow=open;endFill=0;" edge="1" parent="mYbg-_KZEM172oGs_N1d-18" source="mYbg-_KZEM172oGs_N1d-24" target="mYbg-_KZEM172oGs_N1d-33">
          <mxGeometry relative="1" as="geometry">
            <mxPoint x="265.5" y="392" as="targetPoint" />
            <Array as="points">
              <mxPoint x="266" y="277" />
              <mxPoint x="266" y="422" />
              <mxPoint x="141" y="422" />
            </Array>
          </mxGeometry>
        </mxCell>
        <mxCell id="mYbg-_KZEM172oGs_N1d-24" value="Event" style="rhombus;whiteSpace=wrap;html=1;" vertex="1" parent="mYbg-_KZEM172oGs_N1d-18">
          <mxGeometry x="167.75" y="252" width="80" height="50" as="geometry" />
        </mxCell>
        <mxCell id="mYbg-_KZEM172oGs_N1d-25" style="edgeStyle=orthogonalEdgeStyle;rounded=0;orthogonalLoop=1;jettySize=auto;html=1;endArrow=open;endFill=0;" edge="1" parent="mYbg-_KZEM172oGs_N1d-18" source="mYbg-_KZEM172oGs_N1d-19" target="mYbg-_KZEM172oGs_N1d-24">
          <mxGeometry relative="1" as="geometry">
            <mxPoint x="140" y="292" as="targetPoint" />
          </mxGeometry>
        </mxCell>
        <mxCell id="mYbg-_KZEM172oGs_N1d-26" style="edgeStyle=orthogonalEdgeStyle;rounded=0;orthogonalLoop=1;jettySize=auto;html=1;endArrow=open;endFill=0;" edge="1" parent="mYbg-_KZEM172oGs_N1d-18" source="mYbg-_KZEM172oGs_N1d-24" target="mYbg-_KZEM172oGs_N1d-22">
          <mxGeometry relative="1" as="geometry">
            <mxPoint x="140" y="382" as="targetPoint" />
            <Array as="points">
              <mxPoint x="208" y="346" />
            </Array>
          </mxGeometry>
        </mxCell>
        <mxCell id="mYbg-_KZEM172oGs_N1d-27" value="data" style="text;html=1;align=center;verticalAlign=middle;resizable=0;points=[];autosize=1;strokeColor=none;fillColor=none;" vertex="1" parent="mYbg-_KZEM172oGs_N1d-18">
          <mxGeometry x="140.5" y="252" width="40" height="30" as="geometry" />
        </mxCell>
        <mxCell id="mYbg-_KZEM172oGs_N1d-28" style="edgeStyle=orthogonalEdgeStyle;rounded=0;orthogonalLoop=1;jettySize=auto;html=1;endArrow=open;endFill=0;" edge="1" parent="mYbg-_KZEM172oGs_N1d-18" target="mYbg-_KZEM172oGs_N1d-19">
          <mxGeometry relative="1" as="geometry">
            <mxPoint x="35.5" y="252" as="sourcePoint" />
            <Array as="points">
              <mxPoint x="16" y="252" />
              <mxPoint x="16" y="196" />
            </Array>
          </mxGeometry>
        </mxCell>
        <mxCell id="mYbg-_KZEM172oGs_N1d-29" value="" style="shape=line;strokeWidth=6;strokeColor=#000000;rotation=90;" vertex="1" parent="mYbg-_KZEM172oGs_N1d-18">
          <mxGeometry y="270" width="78" height="15" as="geometry" />
        </mxCell>
        <mxCell id="mYbg-_KZEM172oGs_N1d-30" style="edgeStyle=orthogonalEdgeStyle;rounded=0;orthogonalLoop=1;jettySize=auto;html=1;endArrow=open;endFill=0;" edge="1" parent="mYbg-_KZEM172oGs_N1d-18" source="mYbg-_KZEM172oGs_N1d-24" target="mYbg-_KZEM172oGs_N1d-29">
          <mxGeometry relative="1" as="geometry">
            <mxPoint x="115.5" y="277" as="targetPoint" />
          </mxGeometry>
        </mxCell>
        <mxCell id="mYbg-_KZEM172oGs_N1d-31" value="cancel" style="text;html=1;align=center;verticalAlign=middle;resizable=0;points=[];autosize=1;strokeColor=none;fillColor=none;" vertex="1" parent="mYbg-_KZEM172oGs_N1d-18">
          <mxGeometry x="235.5" y="252" width="50" height="30" as="geometry" />
        </mxCell>
        <mxCell id="mYbg-_KZEM172oGs_N1d-32" style="edgeStyle=orthogonalEdgeStyle;rounded=0;orthogonalLoop=1;jettySize=auto;html=1;endArrow=open;endFill=0;" edge="1" parent="mYbg-_KZEM172oGs_N1d-18" source="mYbg-_KZEM172oGs_N1d-33" target="mYbg-_KZEM172oGs_N1d-34">
          <mxGeometry relative="1" as="geometry">
            <mxPoint x="140.5" y="512" as="targetPoint" />
          </mxGeometry>
        </mxCell>
        <mxCell id="mYbg-_KZEM172oGs_N1d-33" value="" style="shape=line;html=1;strokeWidth=6;strokeColor=#000000;" vertex="1" parent="mYbg-_KZEM172oGs_N1d-18">
          <mxGeometry x="40.5" y="452" width="200" height="10" as="geometry" />
        </mxCell>
        <mxCell id="mYbg-_KZEM172oGs_N1d-34" value="" style="ellipse;html=1;shape=endState;fillColor=#000000;strokeColor=#000000;" vertex="1" parent="mYbg-_KZEM172oGs_N1d-18">
          <mxGeometry x="125.5" y="512" width="30" height="30" as="geometry" />
        </mxCell>
        <mxCell id="mYbg-_KZEM172oGs_N1d-35" value="Signal Handler thread" style="swimlane;whiteSpace=wrap" vertex="1" parent="mYbg-_KZEM172oGs_N1d-1">
          <mxGeometry x="724.5" y="128" width="280" height="570" as="geometry" />
        </mxCell>
        <mxCell id="mYbg-_KZEM172oGs_N1d-36" style="edgeStyle=orthogonalEdgeStyle;rounded=0;orthogonalLoop=1;jettySize=auto;html=1;endArrow=open;endFill=0;" edge="1" parent="mYbg-_KZEM172oGs_N1d-35" source="mYbg-_KZEM172oGs_N1d-37" target="mYbg-_KZEM172oGs_N1d-38">
          <mxGeometry relative="1" as="geometry" />
        </mxCell>
        <mxCell id="mYbg-_KZEM172oGs_N1d-37" value="&lt;div&gt;Wait for&lt;/div&gt;&lt;div&gt;termination signal&lt;/div&gt;" style="rounded=0;whiteSpace=wrap;html=1;" vertex="1" parent="mYbg-_KZEM172oGs_N1d-35">
          <mxGeometry x="85" y="90" width="110" height="52.5" as="geometry" />
        </mxCell>
        <mxCell id="mYbg-_KZEM172oGs_N1d-38" value="cancel context" style="rounded=0;whiteSpace=wrap;html=1;" vertex="1" parent="mYbg-_KZEM172oGs_N1d-35">
          <mxGeometry x="90" y="240" width="100" height="45" as="geometry" />
        </mxCell>
        <mxCell id="mYbg-_KZEM172oGs_N1d-39" value="" style="ellipse;html=1;shape=endState;fillColor=#000000;strokeColor=#000000;" vertex="1" parent="mYbg-_KZEM172oGs_N1d-35">
          <mxGeometry x="175.5" y="512" width="30" height="30" as="geometry" />
        </mxCell>
        <mxCell id="mYbg-_KZEM172oGs_N1d-40" style="edgeStyle=orthogonalEdgeStyle;rounded=0;orthogonalLoop=1;jettySize=auto;html=1;endArrow=open;endFill=0;" edge="1" parent="mYbg-_KZEM172oGs_N1d-35" source="mYbg-_KZEM172oGs_N1d-38" target="mYbg-_KZEM172oGs_N1d-41">
          <mxGeometry relative="1" as="geometry">
            <mxPoint x="140.5" y="402" as="targetPoint" />
          </mxGeometry>
        </mxCell>
        <mxCell id="mYbg-_KZEM172oGs_N1d-41" value="" style="shape=line;html=1;strokeWidth=6;strokeColor=#000000;" vertex="1" parent="mYbg-_KZEM172oGs_N1d-35">
          <mxGeometry x="40" y="402" width="200" height="10" as="geometry" />
        </mxCell>
        <mxCell id="mYbg-_KZEM172oGs_N1d-42" value="" style="edgeStyle=orthogonalEdgeStyle;html=1;verticalAlign=bottom;endArrow=open;endSize=8;strokeColor=#000000;rounded=0;" edge="1" parent="mYbg-_KZEM172oGs_N1d-35" source="mYbg-_KZEM172oGs_N1d-41" target="mYbg-_KZEM172oGs_N1d-39">
          <mxGeometry relative="1" as="geometry">
            <mxPoint x="135.5" y="482" as="targetPoint" />
            <Array as="points">
              <mxPoint x="191" y="467" />
            </Array>
          </mxGeometry>
        </mxCell>
        <mxCell id="mYbg-_KZEM172oGs_N1d-43" style="edgeStyle=orthogonalEdgeStyle;rounded=0;orthogonalLoop=1;jettySize=auto;html=1;endArrow=open;endFill=0;" edge="1" parent="mYbg-_KZEM172oGs_N1d-1" source="mYbg-_KZEM172oGs_N1d-53" target="mYbg-_KZEM172oGs_N1d-19">
          <mxGeometry relative="1" as="geometry">
            <mxPoint x="580" y="263" as="targetPoint" />
            <mxPoint x="400" y="280" as="sourcePoint" />
            <Array as="points">
              <mxPoint x="652" y="261" />
            </Array>
          </mxGeometry>
        </mxCell>
        <mxCell id="mYbg-_KZEM172oGs_N1d-44" style="edgeStyle=orthogonalEdgeStyle;rounded=0;orthogonalLoop=1;jettySize=auto;html=1;endArrow=open;endFill=0;" edge="1" parent="mYbg-_KZEM172oGs_N1d-1" source="mYbg-_KZEM172oGs_N1d-29" target="mYbg-_KZEM172oGs_N1d-4">
          <mxGeometry relative="1" as="geometry">
            <Array as="points">
              <mxPoint x="484" y="390" />
              <mxPoint x="430" y="390" />
              <mxPoint x="430" y="330" />
            </Array>
          </mxGeometry>
        </mxCell>
        <mxCell id="mYbg-_KZEM172oGs_N1d-45" style="edgeStyle=orthogonalEdgeStyle;rounded=0;orthogonalLoop=1;jettySize=auto;html=1;endArrow=open;endFill=0;" edge="1" parent="mYbg-_KZEM172oGs_N1d-1" source="mYbg-_KZEM172oGs_N1d-41" target="mYbg-_KZEM172oGs_N1d-19">
          <mxGeometry relative="1" as="geometry">
            <Array as="points">
              <mxPoint x="810" y="560" />
              <mxPoint x="740" y="560" />
              <mxPoint x="740" y="324" />
            </Array>
          </mxGeometry>
        </mxCell>
        <mxCell id="mYbg-_KZEM172oGs_N1d-46" style="edgeStyle=orthogonalEdgeStyle;rounded=0;orthogonalLoop=1;jettySize=auto;html=1;endArrow=open;endFill=0;" edge="1" parent="mYbg-_KZEM172oGs_N1d-1" source="mYbg-_KZEM172oGs_N1d-33" target="mYbg-_KZEM172oGs_N1d-4">
          <mxGeometry relative="1" as="geometry">
            <mxPoint x="540" y="580" as="sourcePoint" />
            <mxPoint x="370" y="340" as="targetPoint" />
            <Array as="points">
              <mxPoint x="540" y="610" />
              <mxPoint x="411" y="610" />
              <mxPoint x="411" y="340" />
            </Array>
          </mxGeometry>
        </mxCell>
        <mxCell id="mYbg-_KZEM172oGs_N1d-47" value="Main thread" style="swimlane;whiteSpace=wrap" vertex="1" parent="mYbg-_KZEM172oGs_N1d-1">
          <mxGeometry x="-115.5" y="128" width="280" height="570" as="geometry" />
        </mxCell>
        <mxCell id="mYbg-_KZEM172oGs_N1d-48" value="" style="ellipse;shape=startState;fillColor=#000000;strokeColor=#000000;" vertex="1" parent="mYbg-_KZEM172oGs_N1d-47">
          <mxGeometry x="125" y="42" width="30" height="30" as="geometry" />
        </mxCell>
        <mxCell id="mYbg-_KZEM172oGs_N1d-49" value="" style="edgeStyle=elbowEdgeStyle;elbow=horizontal;verticalAlign=bottom;endArrow=open;endSize=8;strokeColor=#000000;endFill=1;rounded=0" edge="1" parent="mYbg-_KZEM172oGs_N1d-47" source="mYbg-_KZEM172oGs_N1d-48" target="mYbg-_KZEM172oGs_N1d-50">
          <mxGeometry x="100" y="40" as="geometry">
            <mxPoint x="115" y="110" as="targetPoint" />
          </mxGeometry>
        </mxCell>
        <mxCell id="mYbg-_KZEM172oGs_N1d-50" value="Establish connection&#xa;to RabbitMQ" style="strokeColor=#000000;" vertex="1" parent="mYbg-_KZEM172oGs_N1d-47">
          <mxGeometry x="85" y="107.75" width="110" height="50" as="geometry" />
        </mxCell>
        <mxCell id="mYbg-_KZEM172oGs_N1d-51" value="" style="endArrow=open;strokeColor=#000000;endFill=1;rounded=0" edge="1" parent="mYbg-_KZEM172oGs_N1d-47" source="mYbg-_KZEM172oGs_N1d-50" target="mYbg-_KZEM172oGs_N1d-53">
          <mxGeometry relative="1" as="geometry">
            <mxPoint x="140" y="220" as="targetPoint" />
          </mxGeometry>
        </mxCell>
        <mxCell id="mYbg-_KZEM172oGs_N1d-52" style="edgeStyle=orthogonalEdgeStyle;rounded=0;orthogonalLoop=1;jettySize=auto;html=1;endArrow=open;endFill=0;" edge="1" parent="mYbg-_KZEM172oGs_N1d-47" target="mYbg-_KZEM172oGs_N1d-55">
          <mxGeometry relative="1" as="geometry">
            <mxPoint x="235.5" y="152" as="sourcePoint" />
            <Array as="points">
              <mxPoint x="266" y="152" />
              <mxPoint x="266" y="202" />
            </Array>
          </mxGeometry>
        </mxCell>
        <mxCell id="mYbg-_KZEM172oGs_N1d-53" value="" style="shape=line;strokeWidth=6;strokeColor=#000000;rotation=-90;" vertex="1" parent="mYbg-_KZEM172oGs_N1d-47">
          <mxGeometry x="187.75" y="125.25" width="78" height="15" as="geometry" />
        </mxCell>
        <mxCell id="mYbg-_KZEM172oGs_N1d-54" style="edgeStyle=orthogonalEdgeStyle;rounded=0;orthogonalLoop=1;jettySize=auto;html=1;endArrow=open;endFill=0;" edge="1" parent="mYbg-_KZEM172oGs_N1d-47" source="mYbg-_KZEM172oGs_N1d-55" target="mYbg-_KZEM172oGs_N1d-56">
          <mxGeometry relative="1" as="geometry">
            <mxPoint x="140" y="372" as="targetPoint" />
          </mxGeometry>
        </mxCell>
        <mxCell id="mYbg-_KZEM172oGs_N1d-55" value="&lt;div&gt;Wait for clients&lt;/div&gt;" style="rounded=0;whiteSpace=wrap;html=1;" vertex="1" parent="mYbg-_KZEM172oGs_N1d-47">
          <mxGeometry x="80" y="192" width="120" height="47.5" as="geometry" />
        </mxCell>
        <mxCell id="mYbg-_KZEM172oGs_N1d-56" value="Event" style="rhombus;whiteSpace=wrap;html=1;" vertex="1" parent="mYbg-_KZEM172oGs_N1d-47">
          <mxGeometry x="100" y="372" width="80" height="48" as="geometry" />
        </mxCell>
        <mxCell id="mYbg-_KZEM172oGs_N1d-57" style="edgeStyle=orthogonalEdgeStyle;rounded=0;orthogonalLoop=1;jettySize=auto;html=1;endArrow=open;endFill=0;" edge="1" parent="mYbg-_KZEM172oGs_N1d-47" source="mYbg-_KZEM172oGs_N1d-56" target="mYbg-_KZEM172oGs_N1d-61">
          <mxGeometry relative="1" as="geometry">
            <Array as="points">
              <mxPoint x="140" y="432" />
              <mxPoint x="140" y="432" />
            </Array>
            <mxPoint x="178" y="445" as="sourcePoint" />
          </mxGeometry>
        </mxCell>
        <mxCell id="mYbg-_KZEM172oGs_N1d-58" value="cancel" style="text;html=1;align=center;verticalAlign=middle;resizable=0;points=[];autosize=1;strokeColor=none;fillColor=none;" vertex="1" parent="mYbg-_KZEM172oGs_N1d-47">
          <mxGeometry x="85" y="412" width="60" height="30" as="geometry" />
        </mxCell>
        <mxCell id="mYbg-_KZEM172oGs_N1d-59" style="edgeStyle=orthogonalEdgeStyle;rounded=0;orthogonalLoop=1;jettySize=auto;html=1;endArrow=open;endFill=0;" edge="1" parent="mYbg-_KZEM172oGs_N1d-47" source="mYbg-_KZEM172oGs_N1d-63" target="mYbg-_KZEM172oGs_N1d-55">
          <mxGeometry relative="1" as="geometry">
            <Array as="points">
              <mxPoint x="219" y="222" />
            </Array>
            <mxPoint x="218.30000000000018" y="285" as="sourcePoint" />
          </mxGeometry>
        </mxCell>
        <mxCell id="mYbg-_KZEM172oGs_N1d-60" style="edgeStyle=orthogonalEdgeStyle;rounded=0;orthogonalLoop=1;jettySize=auto;html=1;endArrow=open;endFill=0;" edge="1" parent="mYbg-_KZEM172oGs_N1d-47" source="mYbg-_KZEM172oGs_N1d-56" target="mYbg-_KZEM172oGs_N1d-63">
          <mxGeometry relative="1" as="geometry">
            <Array as="points">
              <mxPoint x="218" y="396" />
            </Array>
            <mxPoint x="218" y="323" as="targetPoint" />
          </mxGeometry>
        </mxCell>
        <mxCell id="mYbg-_KZEM172oGs_N1d-61" value="" style="ellipse;html=1;shape=endState;fillColor=#000000;strokeColor=#000000;" vertex="1" parent="mYbg-_KZEM172oGs_N1d-47">
          <mxGeometry x="125" y="512" width="30" height="30" as="geometry" />
        </mxCell>
        <mxCell id="mYbg-_KZEM172oGs_N1d-62" value="&lt;div&gt;new&lt;/div&gt;&lt;div&gt;client&lt;br&gt;&lt;/div&gt;" style="text;html=1;align=center;verticalAlign=middle;resizable=0;points=[];autosize=1;strokeColor=none;fillColor=none;" vertex="1" parent="mYbg-_KZEM172oGs_N1d-47">
          <mxGeometry x="165.5" y="392" width="50" height="40" as="geometry" />
        </mxCell>
        <mxCell id="mYbg-_KZEM172oGs_N1d-63" value="" style="shape=line;html=1;strokeWidth=6;strokeColor=#000000;" vertex="1" parent="mYbg-_KZEM172oGs_N1d-47">
          <mxGeometry x="171.25" y="312" width="94.5" height="10" as="geometry" />
        </mxCell>
        <mxCell id="mYbg-_KZEM172oGs_N1d-64" style="edgeStyle=orthogonalEdgeStyle;rounded=0;orthogonalLoop=1;jettySize=auto;html=1;endArrow=open;endFill=0;" edge="1" parent="mYbg-_KZEM172oGs_N1d-1" target="mYbg-_KZEM172oGs_N1d-37">
          <mxGeometry relative="1" as="geometry">
            <mxPoint x="830" y="240" as="targetPoint" />
            <mxPoint x="120" y="240" as="sourcePoint" />
            <Array as="points">
              <mxPoint x="460" y="240" />
              <mxPoint x="460" y="240" />
            </Array>
          </mxGeometry>
        </mxCell>
        <mxCell id="mYbg-_KZEM172oGs_N1d-65" value="" style="edgeStyle=orthogonalEdgeStyle;rounded=0;orthogonalLoop=1;jettySize=auto;html=1;endArrow=open;endFill=0;" edge="1" parent="mYbg-_KZEM172oGs_N1d-1" source="mYbg-_KZEM172oGs_N1d-63" target="mYbg-_KZEM172oGs_N1d-4">
          <mxGeometry relative="1" as="geometry">
            <mxPoint x="130" y="440" as="sourcePoint" />
            <mxPoint x="244.5" y="350" as="targetPoint" />
            <Array as="points">
              <mxPoint x="130" y="350" />
              <mxPoint x="180" y="350" />
              <mxPoint x="180" y="290" />
              <mxPoint x="305" y="290" />
            </Array>
          </mxGeometry>
        </mxCell>
      </root>
    </mxGraphModel>
  </diagram>
</mxfile>
